<?xml version="1.0" standalone="no"?>
<!DOCTYPE svg PUBLIC "-//W3C//DTD SVG 20010904//EN"
 "http://www.w3.org/TR/2001/REC-SVG-20010904/DTD/svg10.dtd">
<svg version="1.0" xmlns="http://www.w3.org/2000/svg"
 width="250.000000pt" height="250.000000pt" viewBox="0 0 250.000000 250.000000"
 preserveAspectRatio="xMidYMid meet">
<metadata>
Created by potrace 1.11, written by Peter Selinger 2001-2013
</metadata>
<g transform="translate(0.000000,250.000000) scale(0.100000,-0.100000)"
fill="#000000" stroke="none">
<path d="M1229 2276 c-2 -3 -33 -7 -67 -10 -60 -6 -139 -21 -172 -33 -8 -3
-22 -7 -31 -9 -37 -8 -181 -67 -194 -81 -8 -8 -15 -12 -15 -8 0 9 -84 -41
-171 -101 -106 -74 -190 -168 -276 -309 -129 -211 -172 -487 -112 -720 47
-183 136 -304 252 -341 52 -16 58 -22 81 -68 26 -53 78 -116 95 -116 5 0 11
-5 13 -11 8 -24 109 -47 194 -44 46 2 84 0 85 -4 1 -3 3 -46 5 -95 3 -97 16
-141 45 -156 49 -27 97 2 151 90 100 164 112 179 148 186 103 18 179 63 201
121 7 20 16 23 61 24 29 0 64 3 78 5 46 9 110 46 135 79 22 28 33 33 83 38 31
3 71 12 87 21 66 33 135 116 135 161 0 10 10 15 33 16 52 1 79 8 144 39 148
69 234 237 228 446 -6 227 -117 429 -328 598 -33 26 -63 43 -70 40 -7 -4 -9
-4 -5 1 13 14 -132 96 -257 145 -180 69 -405 109 -488 85 -18 -5 -33 -3 -40 4
-12 12 -21 14 -28 7z m131 -96 c0 -5 10 -9 23 -9 20 2 94 -7 142 -16 141 -27
341 -111 480 -203 88 -58 209 -180 254 -256 98 -164 116 -377 44 -526 -52
-106 -126 -154 -243 -154 -41 -1 -88 3 -103 7 -28 8 -28 8 -20 -30 14 -74 8
-98 -37 -140 -68 -64 -163 -53 -207 24 l-21 36 42 66 c41 64 71 130 83 188 9
38 8 220 -1 263 -10 46 -84 200 -96 200 -6 0 -10 4 -10 10 0 29 -130 135 -214
174 -96 45 -181 57 -336 45 -50 -3 -220 -74 -220 -91 0 -4 -6 -8 -13 -8 -7 0
-43 -32 -80 -71 -195 -205 -217 -517 -52 -734 19 -25 35 -51 35 -59 0 -36 -92
-112 -164 -136 -22 -7 -67 -12 -101 -12 -77 0 -128 29 -180 100 -33 45 -74
157 -93 253 -16 80 -7 256 18 344 56 204 196 406 352 511 40 27 75 52 78 55 9
10 154 77 224 103 76 29 246 62 313 61 24 0 43 2 43 5 0 3 14 7 30 8 17 1 30
-2 30 -8z m-20 -424 c19 -4 58 -17 85 -29 231 -100 344 -363 255 -598 -55
-149 -201 -273 -357 -304 -50 -10 -169 -4 -208 10 -62 22 -105 42 -142 67
-246 165 -279 514 -69 724 116 115 274 163 436 130z m310 -986 l21 -24 -23
-18 c-49 -38 -148 -47 -220 -19 -32 12 -34 10 -42 -44 -13 -79 -60 -114 -157
-117 l-51 -1 -79 -121 -79 -121 -1 55 c-1 94 -4 210 -5 210 0 0 -27 -9 -59
-20 -32 -11 -89 -23 -125 -26 -55 -5 -75 -3 -115 15 -49 22 -64 36 -90 83
l-15 27 42 11 c80 20 123 45 187 108 56 55 66 61 80 48 29 -25 115 -63 181
-80 97 -24 242 -22 291 5 9 4 18 6 20 4 3 -2 45 18 94 44 l90 48 17 -21 c9
-12 26 -32 38 -46z"/>
<path d="M1049 1582 c-8 -1 -22 -15 -30 -30 -13 -22 -15 -70 -14 -281 1 -250
1 -254 23 -272 19 -14 28 -16 52 -7 37 12 41 27 43 154 l2 99 48 1 c26 1 47
-3 47 -7 0 -5 5 -9 11 -9 17 0 45 -35 102 -130 28 -47 57 -91 63 -97 19 -20
80 -16 89 5 9 19 7 54 -4 62 -3 3 -7 10 -8 17 -5 24 -73 121 -103 146 l-31 26
55 26 c40 19 58 35 71 61 25 53 22 118 -8 163 -41 62 -79 74 -247 75 -80 1
-152 0 -161 -2z m279 -96 c22 -13 40 -61 35 -89 -9 -48 -46 -63 -148 -63 l-90
1 -2 70 c-2 39 -1 76 2 83 5 13 180 12 203 -2z"/>
</g>
</svg>
